<svg width="24" height="24" viewBox="0 0 24 24" fill="none" xmlns="http://www.w3.org/2000/svg">
<g id="&#240;&#159;&#148;&#180;">
<path id="Vector" d="M15.5903 13.9064L15.3602 14.2481L15.6515 14.5393L19.499 18.3868C19.8048 18.6927 19.8055 19.1928 19.4985 19.5006C19.1916 19.8071 18.6943 19.807 18.3876 19.5003L14.5401 15.6528L14.2487 15.3615L13.9071 15.5917C12.7066 16.4007 11.2057 16.8006 9.60166 16.5862L9.6015 16.5862C6.88507 16.2241 4.66731 13.9895 4.3229 11.2687C3.80997 7.21527 7.21521 3.80999 11.2686 4.3229C13.9878 4.66716 16.2209 6.88436 16.5849 9.60092C16.7993 11.2049 16.3993 12.7055 15.5903 13.9064ZM10.4282 5.8429C7.88345 5.8429 5.81395 7.9124 5.81395 10.4572C5.81395 13.0027 7.8835 15.0715 10.4282 15.0715C12.973 15.0715 15.0425 13.002 15.0425 10.4572C15.0425 7.9124 12.973 5.8429 10.4282 5.8429Z" fill="#E5E9EB" stroke="#E5E9EB"/>
</g>
</svg>
